<svg width="24" height="24" viewBox="0 0 24 24" fill="none" xmlns="http://www.w3.org/2000/svg">
<path d="M22.7582 1.73608C22.5249 1.21519 21.8581 1.19436 21.5789 1.68607C20.2871 3.93212 17.9744 5.33225 15.3325 5.33225H11.9989C7.58177 5.33225 3.9981 8.91593 3.9981 13.333C3.9981 13.6247 4.03144 13.9039 4.06061 14.1873C6.71919 12.2829 10.5571 10.6661 15.9992 10.6661C16.3659 10.6661 16.666 10.9661 16.666 11.3328C16.666 11.6995 16.3659 11.9996 15.9992 11.9996C5.52324 11.9996 1.08116 18.421 0.0977295 20.8337C-0.177297 21.513 0.147734 22.288 0.826965 22.5672C1.51036 22.8506 2.28544 22.5214 2.5688 21.8463C2.6313 21.6963 3.43971 19.8503 5.56492 18.071C6.91504 19.9003 9.48195 21.6463 12.8531 21.2879C19.3954 20.8129 24 14.9457 24 7.76165C24 5.66978 23.55 3.50291 22.7582 1.73608Z" fill="#4070F4"/>
</svg>
